<svg width="32" height="32" viewBox="0 0 32 32" fill="none" xmlns="http://www.w3.org/2000/svg">
<g clip-path="url(#clip0_11_329)">
<path d="M16.0003 31.9997C24.8368 31.9997 32.0001 24.8363 32.0001 15.9999C32.0001 7.16338 24.8368 0 16.0003 0C7.16381 0 0.000427246 7.16338 0.000427246 15.9999C0.000427246 24.8363 7.16381 31.9997 16.0003 31.9997Z" fill="#2A2C3D"/>
<path d="M25.8006 11.4987C25.115 11.8028 24.3774 12.0084 23.6039 12.1003C24.3937 11.6271 24.9997 10.8784 25.2858 9.98483C24.5468 10.4232 23.728 10.7412 22.8572 10.9126C22.1596 10.1696 21.1656 9.70532 20.065 9.70532C17.9533 9.70532 16.2406 11.418 16.2406 13.5297C16.2406 13.8295 16.2745 14.1213 16.3401 14.4013C13.1617 14.2419 10.3435 12.7194 8.45713 10.4049C8.128 10.9697 7.93918 11.6271 7.93918 12.3279C7.93918 13.6544 8.61485 14.8255 9.64048 15.5111C9.01387 15.4914 8.42376 15.3194 7.90838 15.0322C7.9081 15.0485 7.9081 15.0648 7.9081 15.0807C7.9081 16.9338 9.22692 18.4793 10.9761 18.8304C10.6555 18.9183 10.317 18.9647 9.96876 18.9647C9.72176 18.9647 9.48247 18.9411 9.24917 18.8966C9.73574 20.4156 11.1478 21.5214 12.8217 21.5525C11.5126 22.5784 9.8638 23.1896 8.07152 23.1896C7.76349 23.1896 7.45832 23.1716 7.1597 23.136C8.85129 24.2215 10.862 24.8544 13.0217 24.8544C20.0562 24.8544 23.9031 19.0269 23.9031 13.9727C23.9031 13.807 23.8994 13.6418 23.892 13.4781C24.6398 12.9391 25.2881 12.2657 25.8006 11.4987Z" fill="#F1F2F2"/>
</g>
<defs>
<clipPath id="clip0_11_329">
<rect width="32" height="32" fill="white"/>
</clipPath>
</defs>
</svg>
