<svg width="49" height="48" viewBox="0 0 49 48" fill="none" xmlns="http://www.w3.org/2000/svg">
<path d="M5 11.25H29C30.5913 11.25 32.1174 11.8821 33.2426 13.0074C34.3679 14.1326 35 15.6587 35 17.25V35.25C35 35.6478 34.842 36.0294 34.5607 36.3107C34.2794 36.592 33.8978 36.75 33.5 36.75H9.5C7.9087 36.75 6.38258 36.1179 5.25736 34.9926C4.13214 33.8674 3.5 32.3413 3.5 30.75V12.75C3.5 12.3522 3.65804 11.9706 3.93934 11.6893C4.22064 11.408 4.60218 11.25 5 11.25V11.25Z" stroke="#2F6B4F" stroke-width="2" stroke-linecap="round" stroke-linejoin="round"/>
<path d="M35 21L45.5 15V33L35 27" stroke="#2F6B4F" stroke-width="2" stroke-linecap="round" stroke-linejoin="round"/>
</svg>
