<svg width="49" height="48" viewBox="0 0 49 48" fill="none" xmlns="http://www.w3.org/2000/svg">
<path d="M30.875 30.375C34.3958 30.375 37.25 27.5208 37.25 24C37.25 20.4792 34.3958 17.625 30.875 17.625C27.3542 17.625 24.5 20.4792 24.5 24C24.5 27.5208 27.3542 30.375 30.875 30.375Z" stroke="#2F6B4F" stroke-width="2" stroke-linecap="round" stroke-linejoin="round"/>
<path d="M24.5 17.625V4.875H18.125C16.4342 4.875 14.8127 5.54665 13.6172 6.74219C12.4216 7.93774 11.75 9.55924 11.75 11.25C11.75 12.9408 12.4216 14.5623 13.6172 15.7578C14.8127 16.9534 16.4342 17.625 18.125 17.625H24.5Z" stroke="#2F6B4F" stroke-width="2" stroke-linecap="round" stroke-linejoin="round"/>
<path d="M24.5 30.375V17.625H18.125C16.4342 17.625 14.8127 18.2966 13.6172 19.4922C12.4216 20.6877 11.75 22.3092 11.75 24C11.75 25.6908 12.4216 27.3123 13.6172 28.5078C14.8127 29.7033 16.4342 30.375 18.125 30.375H24.5Z" stroke="#2F6B4F" stroke-width="2" stroke-linecap="round" stroke-linejoin="round"/>
<path d="M24.5 17.625V4.875H30.875C32.5658 4.875 34.1873 5.54665 35.3828 6.74219C36.5783 7.93774 37.25 9.55924 37.25 11.25C37.25 12.9408 36.5783 14.5623 35.3828 15.7578C34.1873 16.9534 32.5658 17.625 30.875 17.625H24.5Z" stroke="#2F6B4F" stroke-width="2" stroke-linecap="round" stroke-linejoin="round"/>
<path d="M24.5 30.375V36.75C24.5 38.0109 24.1261 39.2434 23.4256 40.2918C22.7251 41.3401 21.7295 42.1572 20.5646 42.6397C19.3997 43.1222 18.1179 43.2485 16.8813 43.0025C15.6447 42.7565 14.5088 42.1494 13.6172 41.2578C12.7256 40.3662 12.1185 39.2303 11.8725 37.9937C11.6265 36.7571 11.7528 35.4753 12.2353 34.3104C12.7178 33.1455 13.5349 32.1499 14.5832 31.4494C15.6316 30.7489 16.8641 30.375 18.125 30.375H24.5Z" stroke="#2F6B4F" stroke-width="2" stroke-linecap="round" stroke-linejoin="round"/>
</svg>
