<svg width="49" height="49" viewBox="0 0 49 49" fill="none" xmlns="http://www.w3.org/2000/svg">
<path d="M42.2885 16.2619C41.5328 14.48 40.5328 12.8195 39.3188 11.3312C37.5243 9.06551 35.2849 7.21737 32.7479 5.90847C30.2109 4.59959 27.4338 3.85961 24.5995 3.73725C21.7652 3.61489 18.9379 4.11291 16.3036 5.19857C13.6695 6.28421 11.2881 7.93286 9.31622 10.036C7.34437 12.1391 5.82678 14.6491 4.86334 17.4007C3.8999 20.1522 3.51242 23.083 3.72645 26C3.94049 28.9172 4.75114 31.7544 6.10509 34.3251C7.45903 36.8959 9.32556 39.1418 11.5818 40.915C13.0295 42.0755 14.6292 43.0189 16.3333 43.7172C18.7224 44.7269 21.2795 45.2469 23.8615 45.2484C29.1912 45.2363 34.2988 43.0454 38.0648 39.156C41.8307 35.2667 43.9476 29.9963 43.9515 24.5C43.9554 21.6649 43.3892 18.8598 42.2885 16.2619ZM23.8467 7.94716C26.1654 7.94692 28.4561 8.46953 30.5582 9.47841C30.0456 9.70683 29.5066 9.86637 28.9545 9.95311C27.138 10.2243 25.4552 11.094 24.1573 12.4325C22.8594 13.7709 22.016 15.5063 21.753 17.3797C21.6376 18.4303 21.1742 19.4077 20.4412 20.1469C19.7081 20.8862 18.7502 21.3419 17.7291 21.4375C15.9125 21.7087 14.2297 22.5784 12.9318 23.9169C11.6339 25.2554 10.7905 26.9907 10.5276 28.8641C10.4385 29.863 10.0252 30.8018 9.35455 31.5284C8.19733 29.0069 7.67748 26.2243 7.84337 23.4399C8.00926 20.6555 8.85549 17.9596 10.3033 15.603C11.7511 13.2465 13.7535 11.306 16.1241 9.96205C18.4947 8.61812 21.1564 7.91447 23.8615 7.91654L23.8467 7.94716ZM11.567 35.2187C11.7452 35.0503 11.9233 34.8972 12.1015 34.7134C13.4225 33.3927 14.2704 31.6492 14.507 29.7675C14.6029 28.7097 15.0608 27.7217 15.7988 26.9806C16.509 26.2184 17.4648 25.7499 18.4864 25.6637C20.3029 25.3926 21.9857 24.5228 23.2836 23.1843C24.5815 21.8459 25.4249 20.1105 25.6879 18.2372C25.7522 17.1308 26.2125 16.0885 26.9797 15.3125C27.7074 14.565 28.6723 14.1137 29.697 14.0415C31.3658 13.8048 32.9222 13.0397 34.1515 11.8519C35.5513 13.0494 36.7371 14.49 37.6557 16.1087C37.5993 16.1873 37.5346 16.2593 37.4627 16.3231C36.754 17.0921 35.7994 17.5708 34.7751 17.6706C32.9566 17.937 31.2713 18.8053 29.9725 20.1445C28.6739 21.4839 27.832 23.2219 27.5736 25.0972C27.4689 26.1513 27.0141 27.1357 26.2863 27.8836C25.5582 28.6316 24.602 29.097 23.5794 29.2009C21.7575 29.47 20.0685 30.338 18.763 31.6759C17.4576 33.0139 16.6055 34.7503 16.3333 36.6275C16.2534 37.3758 16.0041 38.0944 15.6057 38.7253C14.0823 37.7925 12.7179 36.6079 11.567 35.2187ZM23.8467 41.1294C22.34 41.1311 20.8404 40.9145 19.3921 40.4862C19.8876 39.5338 20.2097 38.4958 20.3424 37.4237C20.4465 36.3719 20.8992 35.3893 21.6241 34.6418C22.349 33.8942 23.3019 33.4273 24.3218 33.32C26.141 33.0519 27.8272 32.1835 29.1281 30.8447C30.4288 29.5061 31.2745 27.7689 31.5382 25.8934C31.6423 24.8416 32.095 23.859 32.8199 23.1115C33.5448 22.3639 34.4976 21.897 35.5176 21.7897C36.8866 21.6061 38.1915 21.0804 39.3188 20.2584C39.9448 22.7052 40.0189 25.2673 39.5356 27.7482C39.0522 30.2292 38.0241 32.5631 36.5304 34.5707C35.0366 36.5782 33.1169 38.2064 30.9181 39.33C28.7195 40.4536 26.3005 41.043 23.8467 41.0528V41.1294Z" fill="#60D59D"/>
</svg>
